<?xml version="1.0" encoding="UTF-8" standalone="no"?>
<!DOCTYPE svg PUBLIC "-//W3C//DTD SVG 1.1//EN"
 "http://www.w3.org/Graphics/SVG/1.1/DTD/svg11.dtd">
<!-- Generated by graphviz version 16.0.0 (20260814.1018)
 -->
<!-- Title: TutorialQpeWavefunctionHierarchy Pages: 1 -->
<svg width="1145pt" height="386pt"
 viewBox="0.00 0.00 1145.00 386.00" xmlns="http://www.w3.org/2000/svg" xmlns:xlink="http://www.w3.org/1999/xlink" class="qdk-chemistry-wavefunction-hierarchy"><style>.qdk-chemistry-wavefunction-hierarchy { --qdk-fg: var(--vscode-editor-foreground, var(--jp-content-font-color1, currentColor)); } .qdk-chemistry-wavefunction-hierarchy path[fill="#ffffff"], .qdk-chemistry-wavefunction-hierarchy polygon[fill="#ffffff"] { fill: transparent; } .qdk-chemistry-wavefunction-hierarchy path[fill="lightgrey"], .qdk-chemistry-wavefunction-hierarchy polygon[fill="lightgrey"] { fill: none; } .qdk-chemistry-wavefunction-hierarchy path[fill="#e8eaf6"], .qdk-chemistry-wavefunction-hierarchy polygon[fill="#e8eaf6"] { fill: color-mix(in srgb, #3949ab 16%, transparent); } .qdk-chemistry-wavefunction-hierarchy path[fill="#e0f2f1"], .qdk-chemistry-wavefunction-hierarchy polygon[fill="#e0f2f1"] { fill: color-mix(in srgb, #00796b 16%, transparent); } .qdk-chemistry-wavefunction-hierarchy path[fill="#e3f2fd"], .qdk-chemistry-wavefunction-hierarchy polygon[fill="#e3f2fd"] { fill: color-mix(in srgb, #1976d2 16%, transparent); } .qdk-chemistry-wavefunction-hierarchy path[fill="#f3e5f5"], .qdk-chemistry-wavefunction-hierarchy polygon[fill="#f3e5f5"] { fill: color-mix(in srgb, #7b1fa2 16%, transparent); } .qdk-chemistry-wavefunction-hierarchy text[fill="#004d40"] { fill: var(--qdk-fg); } .qdk-chemistry-wavefunction-hierarchy [stroke="#004d40"] { stroke: color-mix(in srgb, #004d40 65%, var(--qdk-fg)); } .qdk-chemistry-wavefunction-hierarchy text[fill="#00796b"] { fill: var(--qdk-fg); } .qdk-chemistry-wavefunction-hierarchy [stroke="#00796b"] { stroke: color-mix(in srgb, #00796b 65%, var(--qdk-fg)); } .qdk-chemistry-wavefunction-hierarchy text[fill="#0d47a1"] { fill: var(--qdk-fg); } .qdk-chemistry-wavefunction-hierarchy [stroke="#0d47a1"] { stroke: color-mix(in srgb, #0d47a1 65%, var(--qdk-fg)); } .qdk-chemistry-wavefunction-hierarchy text[fill="#1976d2"] { fill: var(--qdk-fg); } .qdk-chemistry-wavefunction-hierarchy [stroke="#1976d2"] { stroke: color-mix(in srgb, #1976d2 65%, var(--qdk-fg)); } .qdk-chemistry-wavefunction-hierarchy text[fill="#26a69a"] { fill: var(--qdk-fg); } .qdk-chemistry-wavefunction-hierarchy [stroke="#26a69a"] { stroke: color-mix(in srgb, #26a69a 65%, var(--qdk-fg)); } .qdk-chemistry-wavefunction-hierarchy text[fill="#283593"] { fill: var(--qdk-fg); } .qdk-chemistry-wavefunction-hierarchy [stroke="#283593"] { stroke: color-mix(in srgb, #283593 65%, var(--qdk-fg)); } .qdk-chemistry-wavefunction-hierarchy text[fill="#3949ab"] { fill: var(--qdk-fg); } .qdk-chemistry-wavefunction-hierarchy [stroke="#3949ab"] { stroke: color-mix(in srgb, #3949ab 65%, var(--qdk-fg)); } .qdk-chemistry-wavefunction-hierarchy text[fill="#42a5f5"] { fill: var(--qdk-fg); } .qdk-chemistry-wavefunction-hierarchy [stroke="#42a5f5"] { stroke: color-mix(in srgb, #42a5f5 65%, var(--qdk-fg)); } .qdk-chemistry-wavefunction-hierarchy text[fill="#4a148c"] { fill: var(--qdk-fg); } .qdk-chemistry-wavefunction-hierarchy [stroke="#4a148c"] { stroke: color-mix(in srgb, #4a148c 65%, var(--qdk-fg)); } .qdk-chemistry-wavefunction-hierarchy text[fill="#5c6bc0"] { fill: var(--qdk-fg); } .qdk-chemistry-wavefunction-hierarchy [stroke="#5c6bc0"] { stroke: color-mix(in srgb, #5c6bc0 65%, var(--qdk-fg)); } .qdk-chemistry-wavefunction-hierarchy text[fill="#7b1fa2"] { fill: var(--qdk-fg); } .qdk-chemistry-wavefunction-hierarchy [stroke="#7b1fa2"] { stroke: color-mix(in srgb, #7b1fa2 65%, var(--qdk-fg)); } .qdk-chemistry-wavefunction-hierarchy text[fill="#ab47bc"] { fill: var(--qdk-fg); } .qdk-chemistry-wavefunction-hierarchy [stroke="#ab47bc"] { stroke: color-mix(in srgb, #ab47bc 65%, var(--qdk-fg)); }</style>
<g id="graph0" class="graph" transform="scale(1 1) rotate(0) translate(14.4 371.3)">
<title>TutorialQpeWavefunctionHierarchy</title>
<g id="clust1" class="cluster">
<title>cluster_one_electron</title>
<path fill="#e8eaf6" stroke="#5c6bc0" stroke-width="2.5" d="M20,-244.35C20,-244.35 543,-244.35 543,-244.35 549,-244.35 555,-250.35 555,-256.35 555,-256.35 555,-336.9 555,-336.9 555,-342.9 549,-348.9 543,-348.9 543,-348.9 20,-348.9 20,-348.9 14,-348.9 8,-342.9 8,-336.9 8,-336.9 8,-256.35 8,-256.35 8,-250.35 14,-244.35 20,-244.35"/>
<text xml:space="preserve" text-anchor="middle" x="281.5" y="-331.6" font-family="Arial Bold" font-size="14.00" fill="#3949ab">One&#45;electron representation</text>
</g>
<g id="clust2" class="cluster">
<title>cluster_configuration</title>
<path fill="#e0f2f1" stroke="#26a69a" stroke-width="2.5" d="M335,-111.8C335,-111.8 868,-111.8 868,-111.8 874,-111.8 880,-117.8 880,-123.8 880,-123.8 880,-204.35 880,-204.35 880,-210.35 874,-216.35 868,-216.35 868,-216.35 335,-216.35 335,-216.35 329,-216.35 323,-210.35 323,-204.35 323,-204.35 323,-123.8 323,-123.8 323,-117.8 329,-111.8 335,-111.8"/>
<text xml:space="preserve" text-anchor="middle" x="601.5" y="-199.05" font-family="Arial Bold" font-size="14.00" fill="#00796b">Choose occupations</text>
</g>
<!-- Basis -->
<g id="node1" class="node">
<title>Basis</title>
<path fill="#ffffff" stroke="#5c6bc0" stroke-width="2.5" d="M220,-317.15C220,-317.15 28,-317.15 28,-317.15 22,-317.15 16,-311.15 16,-305.15 16,-305.15 16,-264.35 16,-264.35 16,-258.35 22,-252.35 28,-252.35 28,-252.35 220,-252.35 220,-252.35 226,-252.35 232,-258.35 232,-264.35 232,-264.35 232,-305.15 232,-305.15 232,-311.15 226,-317.15 220,-317.15"/>
<text xml:space="preserve" text-anchor="start" x="64" y="-291.95" font-family="Arial" font-weight="bold" font-size="14.00" fill="#3949ab">Basis functions χ</text>
<text xml:space="preserve" text-anchor="start" x="176.5" y="-291.95" font-family="Arial" font-weight="bold" baseline-shift="sub" font-size="14.00" fill="#3949ab">μ</text>
<text xml:space="preserve" text-anchor="start" x="41.88" y="-266.8" font-family="Arial" font-size="11.00" fill="#3949ab">Nucleus&#45;centered spatial functions</text>
</g>
<!-- MolecularOrbital -->
<g id="node2" class="node">
<title>MolecularOrbital</title>
<path fill="#ffffff" stroke="#5c6bc0" stroke-width="2.5" d="M535,-317.15C535,-317.15 343,-317.15 343,-317.15 337,-317.15 331,-311.15 331,-305.15 331,-305.15 331,-264.35 331,-264.35 331,-258.35 337,-252.35 343,-252.35 343,-252.35 535,-252.35 535,-252.35 541,-252.35 547,-258.35 547,-264.35 547,-264.35 547,-305.15 547,-305.15 547,-311.15 541,-317.15 535,-317.15"/>
<text xml:space="preserve" text-anchor="start" x="374.12" y="-291.95" font-family="Arial" font-weight="bold" font-size="14.00" fill="#3949ab">Molecular orbital φ</text>
<text xml:space="preserve" text-anchor="start" x="496.38" y="-291.95" font-family="Arial" font-weight="bold" baseline-shift="sub" font-size="14.00" fill="#3949ab">p</text>
<text xml:space="preserve" text-anchor="start" x="364.75" y="-266.8" font-family="Arial" font-size="11.00" fill="#3949ab">With α or β spin: spin orbital ψ</text>
<text xml:space="preserve" text-anchor="start" x="508" y="-266.8" font-family="Arial" baseline-shift="sub" font-size="11.00" fill="#3949ab">p</text>
</g>
<!-- Basis&#45;&gt;MolecularOrbital -->
<g id="edge1" class="edge">
<title>Basis&#45;&gt;MolecularOrbital</title>
<path fill="none" stroke="#5c6bc0" stroke-width="2.5" d="M232.85,-284.75C259.7,-284.75 288.64,-284.75 316.11,-284.75"/>
<polygon fill="#5c6bc0" stroke="#5c6bc0" stroke-width="2.5" points="316.1,-288.25 326.1,-284.75 316.1,-281.25 316.1,-288.25"/>
<text xml:space="preserve" text-anchor="middle" x="281.5" y="-290.2" font-family="Arial" font-size="14.00" fill="#3949ab"> &#160;combine &#160;</text>
</g>
<!-- Configuration -->
<g id="node3" class="node">
<title>Configuration</title>
<path fill="#00796b" stroke="#004d40" stroke-width="2.5" d="M535,-184.6C535,-184.6 343,-184.6 343,-184.6 337,-184.6 331,-178.6 331,-172.6 331,-172.6 331,-131.8 331,-131.8 331,-125.8 337,-119.8 343,-119.8 343,-119.8 535,-119.8 535,-119.8 541,-119.8 547,-125.8 547,-131.8 547,-131.8 547,-172.6 547,-172.6 547,-178.6 541,-184.6 535,-184.6"/>
<text xml:space="preserve" text-anchor="start" x="367" y="-159.4" font-family="Arial" font-weight="bold" font-size="14.00" fill="#ffffff">Electron configuration</text>
<text xml:space="preserve" text-anchor="start" x="362.5" y="-134.25" font-family="Arial" font-size="11.00" fill="#e0f2f1">Pattern of occupied spin orbitals</text>
</g>
<!-- MolecularOrbital&#45;&gt;Configuration -->
<g id="edge3" class="edge">
<title>MolecularOrbital:s&#45;&gt;Configuration:n</title>
<path fill="none" stroke="#00796b" stroke-width="2.5" d="M439,-244.35C439,-238.94 439,-234.32 439,-230.11"/>
<polygon fill="#00796b" stroke="#00796b" stroke-width="2.5" points="442.5,-230.13 439,-220.13 435.5,-230.13 442.5,-230.13"/>
</g>
<!-- Determinant -->
<g id="node4" class="node">
<title>Determinant</title>
<path fill="#00796b" stroke="#004d40" stroke-width="2.5" d="M859.9,-184.6C859.9,-184.6 660.1,-184.6 660.1,-184.6 654.1,-184.6 648.1,-178.6 648.1,-172.6 648.1,-172.6 648.1,-131.8 648.1,-131.8 648.1,-125.8 654.1,-119.8 660.1,-119.8 660.1,-119.8 859.9,-119.8 859.9,-119.8 865.9,-119.8 871.9,-125.8 871.9,-131.8 871.9,-131.8 871.9,-172.6 871.9,-172.6 871.9,-178.6 865.9,-184.6 859.9,-184.6"/>
<text xml:space="preserve" text-anchor="start" x="691.38" y="-159.4" font-family="Arial" font-weight="bold" font-size="14.00" fill="#ffffff">Slater determinant Φ</text>
<text xml:space="preserve" text-anchor="start" x="825.62" y="-159.4" font-family="Arial" font-weight="bold" baseline-shift="sub" font-size="14.00" fill="#ffffff">I</text>
<text xml:space="preserve" text-anchor="start" x="662.5" y="-134.25" font-family="Arial" font-size="11.00" fill="#e0f2f1">Antisymmetric state for one configuration</text>
</g>
<!-- Configuration&#45;&gt;Determinant -->
<g id="edge2" class="edge">
<title>Configuration&#45;&gt;Determinant</title>
<path fill="none" stroke="#00796b" stroke-width="2.5" d="M548.12,-152.2C575.54,-152.2 605.18,-152.2 633.37,-152.2"/>
<polygon fill="#00796b" stroke="#00796b" stroke-width="2.5" points="633.29,-155.7 643.29,-152.2 633.29,-148.7 633.29,-155.7"/>
<text xml:space="preserve" text-anchor="middle" x="597.55" y="-157.65" font-family="Arial" font-size="14.00" fill="#00796b"> &#160;construct &#160;</text>
</g>
<!-- HartreeFock -->
<g id="node5" class="node">
<title>HartreeFock</title>
<path fill="#7b1fa2" stroke="#4a148c" stroke-width="2.5" d="M856,-64.8C856,-64.8 664,-64.8 664,-64.8 658,-64.8 652,-58.8 652,-52.8 652,-52.8 652,-12 652,-12 652,-6 658,0 664,0 664,0 856,0 856,0 862,0 868,-6 868,-12 868,-12 868,-52.8 868,-52.8 868,-58.8 862,-64.8 856,-64.8"/>
<text xml:space="preserve" text-anchor="start" x="703" y="-39.6" font-family="Arial" font-weight="bold" font-size="14.00" fill="#ffffff">Hartree&#45;Fock Φ</text>
<text xml:space="preserve" text-anchor="start" x="801.25" y="-39.6" font-family="Arial" font-weight="bold" baseline-shift="sub" font-size="14.00" fill="#ffffff">HF</text>
<text xml:space="preserve" text-anchor="start" x="695.5" y="-14.45" font-family="Arial" font-size="11.00" fill="#f3e5f5">One optimized determinant</text>
</g>
<!-- Determinant&#45;&gt;HartreeFock -->
<g id="edge4" class="edge">
<title>Determinant:s&#45;&gt;HartreeFock:n</title>
<path fill="none" stroke="#7b1fa2" stroke-width="2.5" d="M760,-111.8C760,-97.85 760,-90.41 760,-78.34"/>
<polygon fill="#7b1fa2" stroke="#7b1fa2" stroke-width="2.5" points="763.5,-78.58 760,-68.58 756.5,-78.58 763.5,-78.58"/>
</g>
<!-- MultiConfig -->
<g id="node6" class="node">
<title>MultiConfig</title>
<path fill="#7b1fa2" stroke="#4a148c" stroke-width="2.5" d="M1104,-64.8C1104,-64.8 912,-64.8 912,-64.8 906,-64.8 900,-58.8 900,-52.8 900,-52.8 900,-12 900,-12 900,-6 906,0 912,0 912,0 1104,0 1104,0 1110,0 1116,-6 1116,-12 1116,-12 1116,-52.8 1116,-52.8 1116,-58.8 1110,-64.8 1104,-64.8"/>
<text xml:space="preserve" text-anchor="start" x="935.62" y="-39.6" font-family="Arial" font-weight="bold" font-size="14.00" fill="#ffffff">Multiconfigurational Ψ</text>
<text xml:space="preserve" text-anchor="start" x="958.88" y="-14.45" font-family="Arial" font-size="11.00" fill="#f3e5f5">Combination ∑</text>
<text xml:space="preserve" text-anchor="start" x="1030.12" y="-14.45" font-family="Arial" baseline-shift="sub" font-size="11.00" fill="#f3e5f5">I</text>
<text xml:space="preserve" text-anchor="start" x="1032.38" y="-14.45" font-family="Arial" font-size="11.00" fill="#f3e5f5"> c</text>
<text xml:space="preserve" text-anchor="start" x="1040.62" y="-14.45" font-family="Arial" baseline-shift="sub" font-size="11.00" fill="#f3e5f5">I</text>
<text xml:space="preserve" text-anchor="start" x="1042.88" y="-14.45" font-family="Arial" font-size="11.00" fill="#f3e5f5"> Φ</text>
<text xml:space="preserve" text-anchor="start" x="1054.88" y="-14.45" font-family="Arial" baseline-shift="sub" font-size="11.00" fill="#f3e5f5">I</text>
</g>
<!-- Determinant&#45;&gt;MultiConfig -->
<g id="edge5" class="edge">
<title>Determinant:s&#45;&gt;MultiConfig:n</title>
<path fill="none" stroke="#7b1fa2" stroke-width="2.5" d="M761.49,-111.8C780.18,-71.49 968.98,-110.21 1002.82,-76.93"/>
<polygon fill="#7b1fa2" stroke="#7b1fa2" stroke-width="2.5" points="1005.81,-78.85 1006.51,-68.28 999.37,-76.1 1005.81,-78.85"/>
</g>
</g>
</svg>
