<svg width="24" height="24" viewBox="0 0 24 24" xmlns="http://www.w3.org/2000/svg">
  <g fill="none" stroke="black" stroke-width="1.25">
    <path d="M 17.649282,9.9359713 C 13.892323,6.9025392 11.410021,4.6365333 6.9838328,4.5357443 4.8411523,4.6271875 3.2290696,5.9813466 2.4783558,6.9250164 1.6475137,7.969408 0.84486481,10.085487 0.89788682,12.490942 c 0.0850464,3.858146 4.64749278,6.748932 8.08910008,7.100746 2.4839341,0.07557 4.8193011,-0.78492 7.2312351,-3.013438 1.29238,-1.531981 2.846578,-2.895857 4.536189,-3.429144 1.486536,-0.46919 2.62774,0.167623 2.403102,0.891038 -0.402502,1.296193 -3.567515,1.753728 -4.644195,1.323055 l -0.810034,-0.324013" />
    <path d="m 3.5492142,5.8816605 c 0.036558,-0.054826 -0.4751403,2.8829742 0.1674806,4.4053255 0.7047943,1.669636 2.3220977,3.213135 3.7801598,4.05017 1.4580611,0.837035 2.4301015,1.350057 4.3201824,1.755075 1.890079,0.405016 4.623838,0.238763 4.623838,0.238763" />
    <path d="m 23.171847,13.856921 -0.202403,-3.258676 c 0,0 -0.779248,-1.548378 -2.459187,-1.5180176 -1.679937,0.030367 -3.145694,0.8455527 -4.281756,1.7360746 -1.173934,0.920207 -5.487067,5.017588 -5.487067,4.984362" />
    <path d="m 3.609672,10.144195 c 0,0 1.5767152,-0.885173 3.3608916,-0.8713417 1.7841776,0.013829 2.7661661,0.2904475 3.9971094,1.0649737 1.230944,0.774527 3.194921,2.254425 3.194921,2.254425" />
  </g>
</svg>
